<svg width="15" height="15" viewBox="0 0 15 15" fill="none" xmlns="http://www.w3.org/2000/svg">
<path d="M7.5 15C11.6421 15 15 11.6421 15 7.5C15 3.35786 11.6421 0 7.5 0C3.35786 0 0 3.35786 0 7.5C0 11.6421 3.35786 15 7.5 15Z" fill="#9EC862"/>
<path d="M7.68929 9.17984C8.02052 9.51107 8.02052 10.0789 7.68929 10.4101L7.00317 11.0962C6.67193 11.4275 6.10411 11.4275 5.77288 11.0962L2.76814 8.06785C2.43691 7.73662 2.43691 7.16879 2.76814 6.83756L3.45426 6.15144C3.78549 5.82021 4.35332 5.82021 4.68455 6.15144L7.68929 9.17984Z" fill="white"/>
<path d="M10.3155 3.95112C10.6467 3.61989 11.2145 3.61989 11.5458 3.95112L12.2319 4.63724C12.5631 4.96847 12.5631 5.53629 12.2319 5.86752L7.02683 11.0489C6.6956 11.3801 6.12777 11.3801 5.79654 11.0489L5.11042 10.3628C4.77919 10.0316 4.77919 9.46374 5.11042 9.13251L10.3155 3.95112Z" fill="white"/>
</svg>
