<svg width="15" height="15" viewBox="0 0 15 15" fill="none" xmlns="http://www.w3.org/2000/svg">
<path d="M7.5 15C11.6421 15 15 11.6421 15 7.5C15 3.35786 11.6421 0 7.5 0C3.35786 0 0 3.35786 0 7.5C0 11.6421 3.35786 15 7.5 15Z" fill="#F15249"/>
<path d="M11.049 9.15615C11.3802 9.48738 11.3802 10.0552 11.049 10.3864L10.3865 11.0489C10.0553 11.3801 9.48746 11.3801 9.15623 11.0489L3.95118 5.84384C3.61995 5.51261 3.61995 4.94479 3.95118 4.61356L4.6373 3.92744C4.96853 3.59621 5.53635 3.59621 5.86759 3.92744L11.049 9.15615Z" fill="white"/>
<path d="M8.30446 6.388L6.38806 8.3044L9.1562 11.0489C9.48743 11.3801 10.0553 11.3801 10.3865 11.0489L11.0726 10.3628C11.4038 10.0315 11.4038 9.46371 11.0726 9.13248L8.30446 6.388Z" fill="white"/>
<path d="M9.15623 3.95112C9.48746 3.61989 10.0553 3.61989 10.3865 3.95112L11.0726 4.63724C11.4039 4.96847 11.4039 5.53629 11.0726 5.86752L5.84393 11.0489C5.5127 11.3801 4.94487 11.3801 4.61364 11.0489L3.95118 10.3865C3.61995 10.0552 3.61995 9.4874 3.95118 9.15617L9.15623 3.95112Z" fill="white"/>
</svg>
